<?xml version="1.0" encoding="UTF-8"?>
<!DOCTYPE svg PUBLIC "-//W3C//DTD SVG 1.1//EN" "http://www.w3.org/Graphics/SVG/1.1/DTD/svg11.dtd">
<!-- Creator: CorelDRAW 2018 (64-Bit) -->
<svg xmlns="http://www.w3.org/2000/svg" xml:space="preserve" width="0.817307in" height="0.778835in" version="1.1" style="shape-rendering:geometricPrecision; text-rendering:geometricPrecision; image-rendering:optimizeQuality; fill-rule:evenodd; clip-rule:evenodd"
viewBox="0 0 24.87 23.7"
 xmlns:xlink="http://www.w3.org/1999/xlink">
 <defs>
  <style type="text/css">
   <![CDATA[
    .fil1 {fill:#FEFEFE;fill-rule:nonzero}
    .fil0 {fill:#373435;fill-rule:nonzero}
   ]]>
  </style>
 </defs>
 <g id="Layer_x0020_1">
  <metadata id="CorelCorpID_0Corel-Layer"/>
  <path class="fil0" d="M20.22 20.75c-4.8,4.2 -12.37,3.88 -16.93,-0.72 -4.55,-4.6 -4.36,-11.73 0.44,-15.93 4.8,-4.2 12.37,-3.88 16.93,0.72 4.55,4.6 4.36,11.73 -0.44,15.93z"/>
  <path class="fil1" d="M24.87 10.33c0,5.7 -5.01,10.33 -11.19,10.33 -6.18,0 -11.19,-4.62 -11.19,-10.33 0,-5.7 5.01,-10.33 11.19,-10.33 6.18,0 11.19,4.62 11.19,10.33z"/>
  <g id="_1154982118720">
   <path class="fil0" d="M8.9 8.26c-0.11,-0.04 -0.35,0.32 -0.48,0.5 -0.1,0.15 -0.11,0.19 -0.31,0.56 -0.28,0.53 -0.32,0.54 -0.42,0.78 -0.1,0.23 -0.08,0.25 -0.2,0.53 -0.14,0.33 -0.18,0.33 -0.25,0.53 -0.07,0.18 -0.09,0.41 -0.14,0.87 -0.03,0.31 -0.05,0.47 -0.06,0.7 -0.01,0.38 -0.01,0.58 0.06,0.81 0.02,0.05 0.06,0.18 0.28,0.53 0.17,0.27 0.43,0.68 0.87,1.15 0.17,0.19 0.32,0.32 0.45,0.59 0.11,0.22 0.18,0.33 0.14,0.42 -0.15,0.36 -1.86,0.23 -2.04,-0.36 -0.07,-0.21 0.1,-0.35 0.31,-0.81 0.29,-0.65 0.27,-1.07 0.36,-1.65 0.22,-1.34 0.69,-1.36 1.18,-3.11 0.26,-0.94 0.42,-1.98 0.25,-2.04z"/>
   <path class="fil0" d="M6.94 17.05c0.4,0.42 1.63,1.17 2.91,1.09 0.58,-0.04 0.75,-0.21 0.81,-0.31 0.33,-0.48 -0.23,-1.4 -0.5,-1.85 -0.44,-0.72 -0.68,-0.77 -0.95,-1.2 -0.51,-0.81 -0.2,-1.45 -0.14,-3.19 0.09,-2.45 -0.46,-2.7 0,-3.86 0.33,-0.84 0.95,-1.42 0.95,-1.42 0.14,-0.14 0.4,-0.38 0.76,-0.59 1.07,-0.64 2.64,-0.84 2.86,-0.42 0.27,0.52 -1.71,1.42 -1.6,2.86 0.02,0.26 0.22,0.3 0.63,1.1 0.22,0.43 0.34,0.66 0.41,0.91 0.27,0.89 -0.31,1.33 -0.36,2.58 -0.02,0.46 -0.04,1.14 0.2,1.93 0.12,0.4 0.49,1.43 1.4,2.21 0.24,0.21 0.51,0.39 0.62,0.76 0.09,0.34 0.02,0.75 -0.22,1.04 -0.2,0.23 -0.5,0.36 -1.26,0.39 -1.24,0.06 -2.5,-0.19 -2.49,-0.36 0.02,-0.21 1.83,0.16 2.24,-0.62 0.42,-0.79 -0.87,-2.33 -1.01,-2.49 -0.51,-0.59 -0.84,-0.71 -1.34,-1.48 -0.21,-0.33 -0.44,-0.68 -0.56,-1.2 -0.13,-0.57 -0.08,-1.05 0,-1.68 0.06,-0.53 0.19,-1.01 0.22,-1.15 0.03,-0.13 0.07,-0.24 0.08,-0.3 0.08,-0.28 0.2,-0.63 0.38,-1.03 0,0 0.1,-0.23 0.21,-0.45 0.52,-1.04 1.55,-2.03 1.43,-2.21 -0.07,-0.11 -0.59,0.04 -2.44,1.06 -3.22,4.5 -4.5,8.57 -3.22,9.91z"/>
   <path class="fil0" d="M10.86 5.35c-0.05,-0.16 1.01,-0.66 2.04,-0.95 0.43,-0.12 1.18,-0.32 2.18,-0.31 1.08,0.02 1.82,0.27 2.74,0.59 0.57,0.2 0.9,0.36 1.2,0.67 0.42,0.43 0.62,1 0.53,1.06 -0.11,0.08 -0.48,-0.66 -1.32,-1.06 -0.9,-0.43 -2.21,-0.41 -2.8,0.25 -0.49,0.56 -0.28,1.35 -0.5,1.37 -0.22,0.03 -0.67,-0.74 -0.45,-1.29 0.23,-0.57 1.11,-0.65 1.09,-0.76 -0.03,-0.12 -1.34,0.06 -2.52,0.22 -1.98,0.27 -2.19,0.26 -2.21,0.2z"/>
   <path class="fil0" d="M14.41 7.22c0.62,0.25 1.26,0.45 1.37,0.28 0.07,-0.12 -0.16,-0.31 -0.08,-0.48 0.12,-0.26 0.97,-0.32 1.6,0.06 0.42,0.25 0.34,0.46 1.29,1.6 0.14,0.17 0.32,0.38 0.56,0.62 0.24,0.25 0.44,0.41 0.64,0.59 1.1,0.94 1.03,0.86 1.12,0.95 0.22,0.23 0.8,0.83 0.92,1.74 0.1,0.76 -0.18,1.36 -0.31,1.65 -0.26,0.57 -0.61,0.92 -0.95,1.26 -0.31,0.31 -0.56,0.56 -0.95,0.76 -0.76,0.38 -1.46,0.26 -1.46,0.31 0,0.05 0.78,0.2 1.71,0 0.45,-0.09 1.17,-0.25 1.76,-0.87 0.4,-0.42 0.55,-0.87 0.67,-1.2 0.13,-0.37 0.34,-0.97 0.2,-1.68 -0.08,-0.4 -0.28,-0.73 -0.67,-1.37 -0.49,-0.8 -0.56,-0.73 -0.78,-1.15 -0.53,-1.01 -0.1,-1.41 -0.59,-2.41 -0.36,-0.73 -0.9,-1.15 -1.15,-1.34 -0.33,-0.25 -0.95,-0.71 -1.88,-0.78 -0.17,-0.01 -0.79,-0.05 -1.51,0.25 -0.85,0.35 -1.33,0.96 -1.51,1.23z"/>
   <path class="fil0" d="M13.32 7.87c0.18,-0.47 0.61,-0.72 0.95,-0.64 0.18,0.04 0.19,0.18 0.45,0.36 0.4,0.28 1.01,0.39 1.2,0.17 0.15,-0.17 -0.06,-0.4 0.08,-0.59 0.2,-0.26 0.95,-0.22 1.34,0.17 0.31,0.31 0.18,0.63 0.53,1.06 0.13,0.16 0.34,0.2 0.67,0.5 0.15,0.13 0.25,0.25 0.22,0.31 -0.01,0.03 -0.06,0.04 -0.23,0.04 -0.19,-0 -0.29,-0.01 -0.42,-0.04 -0.44,-0.1 -1.5,0.52 -1.43,0.73 0.03,0.1 0.34,0.09 0.42,0.08 0.31,-0.01 0.48,-0.14 0.73,-0.25 0.32,-0.15 0.86,-0.39 1.26,-0.2 0.06,0.03 0.21,0.19 0.5,0.5 0.21,0.23 0.28,0.31 0.25,0.39 -0.01,0.03 -0.04,0.05 -0.07,0.08 -0.04,0.03 -0.1,0.06 -0.28,0.07 -0.09,0.01 -0.2,0.01 -0.35,-0.01 -0.1,-0.02 -0.19,-0.04 -0.22,-0.05 -0.08,-0.02 -0.14,-0.05 -0.16,-0.06 -0.14,-0.06 -0.58,-0.22 -0.74,-0.26 -0.51,-0.1 -1.22,0.6 -1.12,0.81 0.05,0.11 0.45,0.06 1.23,-0.06 1.23,-0.18 1.56,-0.33 1.82,-0.11 0.17,0.15 0.23,0.41 0.34,0.92 0.05,0.25 0.07,0.43 0.08,0.67 0.05,0.64 0.07,0.97 0,1.2 -0.07,0.24 -0.31,0.52 -0.78,1.06 -0.27,0.32 -0.38,0.41 -0.59,0.7 -0.24,0.34 -0.21,0.39 -0.36,0.56 -0.39,0.41 -0.99,0.53 -1.06,0.42 -0.07,-0.1 0.33,-0.36 0.25,-0.62 -0.06,-0.18 -0.3,-0.16 -0.36,-0.36 -0.08,-0.23 0.17,-0.42 0.08,-0.53 -0.06,-0.08 -0.2,-0.01 -0.64,0.03 -0.41,0.04 -0.56,0.01 -0.67,-0.03 -0.09,-0.03 -0.25,-0.09 -0.34,-0.25 -0.09,-0.18 -0.06,-0.44 0.06,-0.5 0.11,-0.06 0.17,0.1 0.39,0.08 0.15,-0.01 0.2,-0.09 0.5,-0.15 0.04,-0.01 0.08,-0.01 0.12,-0.02 0.38,-0.04 0.57,0.23 0.78,0.17 0.18,-0.05 0.31,-0.31 0.25,-0.45 -0.08,-0.19 -0.52,-0.18 -0.81,-0.17 -0.37,0.01 -0.65,0.1 -0.7,0.11 -0.49,0.15 -1.22,0.52 -1.18,0.73 0.08,0.33 2.2,0.41 2.44,-0.22 0.12,-0.33 -0.23,-0.9 -0.67,-1.06 -0.04,-0.01 -0.03,-0 -0.6,-0.02 -0.36,-0.01 -0.47,-0.02 -0.6,-0.09 -0.18,-0.1 -0.35,-0.29 -0.31,-0.39 0.03,-0.07 0.15,-0.08 0.28,-0.1 0.16,-0.02 0.3,-0 0.53,0.04 0.23,0.04 0.44,0.09 0.51,0.11 0.38,0.09 0.47,0.12 0.53,0.06 0.06,-0.07 0.05,-0.24 -0.03,-0.28 -0.15,-0.09 -0.39,0.42 -0.78,0.42 -0.34,0 -0.68,-0.36 -0.73,-0.7 -0.03,-0.22 0.08,-0.28 0.11,-0.5 0.07,-0.52 -0.44,-1.05 -0.81,-1.29 -0.87,-0.55 -1.89,-0.06 -1.96,-0.03l0.08 -2.55z"/>
  </g>
 </g>
</svg>
